<!DOCTYPE svg PUBLIC "-//W3C//DTD SVG 1.1//EN" "http://www.w3.org/Graphics/SVG/1.1/DTD/svg11.dtd">
<!-- Uploaded to: SVG Repo, www.svgrepo.com, Transformed by: SVG Repo Mixer Tools -->
<svg width="800px" height="800px" viewBox="-2.4 -2.4 28.80 28.80" fill="none" xmlns="http://www.w3.org/2000/svg" transform="rotate(0)matrix(1, 0, 0, 1, 0, 0)">
<g id="SVGRepo_bgCarrier" stroke-width="0">
<path transform="translate(-2.4, -2.4), scale(0.8999999999999999)" d="M16,29.637532114982605C19.844168070908413,29.824465935511626,23.921445598831582,29.362359738095513,26.715384214542155,26.715384214542155C29.56536548910528,24.015313914523986,30.460259151143774,19.9253630832574,30.394703411497176,16C30.330360621186117,12.147266202435295,28.991722129655805,8.454336072306637,26.363357541511174,5.6366424584888275C23.63655630078111,2.7134215032182203,19.963086360347102,0.044368104158704624,16.000000000000004,0.5684027024544775C12.249832573637264,1.0642832617274198,10.649546255536281,5.302316879816884,8.05724041264062,8.057240412640617C5.608261448451779,10.659846042035745,1.8373600565852786,12.44432192344868,1.4792993841692805,15.999999999999996C1.1028833031080918,19.73795423568787,3.5399485721730444,23.149661572282536,6.278422324516297,25.721577675483697C8.92571678302243,28.20786013187793,12.372514300892227,29.461135103160913,16,29.637532114982605" fill="#8cddee" strokewidth="0"/>
</g>
<g id="SVGRepo_tracerCarrier" stroke-linecap="round" stroke-linejoin="round" stroke="#a43232" stroke-width="0.336"/>
<g id="SVGRepo_iconCarrier"> <path d="M12.37 8.87988H17.62" stroke="#000000" stroke-width="1.464" stroke-linecap="round" stroke-linejoin="round"/> <path d="M6.38 8.87988L7.13 9.62988L9.38 7.37988" stroke="#000000" stroke-width="1.464" stroke-linecap="round" stroke-linejoin="round"/> <path d="M12.37 15.8799H17.62" stroke="#000000" stroke-width="1.464" stroke-linecap="round" stroke-linejoin="round"/> <path d="M6.38 15.8799L7.13 16.6299L9.38 14.3799" stroke="#000000" stroke-width="1.464" stroke-linecap="round" stroke-linejoin="round"/> <path d="M9 22H15C20 22 22 20 22 15V9C22 4 20 2 15 2H9C4 2 2 4 2 9V15C2 20 4 22 9 22Z" stroke="#000000" stroke-width="1.464" stroke-linecap="round" stroke-linejoin="round"/> </g>
</svg>